<svg xmlns="http://www.w3.org/2000/svg" viewBox="0 0 22 22" width="22" height="22" role="img" aria-label="Varsto">
  <path fill="#000000" d="M19.29 7.49A9 9 0 0 1 7.49 19.29A1.1 1.1 0 0 1 8.34 17.27A6.8 6.8 0 0 0 17.27 8.34A1.1 1.1 0 0 1 19.29 7.49ZM2.71 14.51A9 9 0 0 1 14.51 2.71A1.1 1.1 0 0 1 13.66 4.73A6.8 6.8 0 0 0 4.73 13.66A1.1 1.1 0 0 1 2.71 14.51ZM13.52 9.35A2.52 2.52 0 1 1 8.48 9.35A2.52 2.52 0 1 1 13.52 9.35ZM9.79 9.35L12.21 9.35L12.65 15.06A0.44 0.44 0 0 1 12.21 15.5L9.79 15.5A0.44 0.44 0 0 1 9.35 15.06Z"/>
</svg>
