<svg xmlns="http://www.w3.org/2000/svg" viewBox="0 0 640 320" width="640" height="320" role="img" aria-label="A ledger batch with two seals, Ed25519 and ML-DSA-65, and a share token sealed with X25519 and ML-KEM-768">
<defs><linearGradient id="bg" x1="0" y1="0" x2="1" y2="1"><stop offset="0" stop-color="#f8faff"/><stop offset="1" stop-color="#edf1fd"/></linearGradient><pattern id="dots" width="18" height="18" patternUnits="userSpaceOnUse"><circle cx="9" cy="9" r="1" fill="#2b57d6" fill-opacity=".07"/></pattern><linearGradient id="pg" x1="0" y1="0" x2="1" y2="1"><stop offset="0" stop-color="#4472f4"/><stop offset="1" stop-color="#1b3a9a"/></linearGradient><linearGradient id="wg" x1="0" y1="0" x2="0" y2="1"><stop offset="0" stop-color="#ffffff"/><stop offset="1" stop-color="#f0f3fc"/></linearGradient><linearGradient id="sg" x1="0" y1="0" x2="1" y2="1"><stop offset="0" stop-color="#ffffff"/><stop offset=".55" stop-color="#eaf0ff"/><stop offset="1" stop-color="#d6e0fb"/></linearGradient><linearGradient id="dg" x1="0" y1="0" x2="0" y2="1"><stop offset="0" stop-color="#4a5970"/><stop offset="1" stop-color="#1f2a3d"/></linearGradient><linearGradient id="mg" x1="0" y1="0" x2="0" y2="1"><stop offset="0" stop-color="#e6ebf3"/><stop offset="1" stop-color="#b9c4d6"/></linearGradient><radialGradient id="hl" cx=".28" cy=".12" r=".85"><stop offset="0" stop-color="#fff" stop-opacity=".75"/><stop offset=".6" stop-color="#fff" stop-opacity="0"/></radialGradient><radialGradient id="cg" gradientUnits="userSpaceOnUse" cx="-14" cy="-26" r="72"><stop offset="0" stop-color="#ffffff"/><stop offset="1" stop-color="#e6ecfc"/></radialGradient><filter id="sh" x="-20%" y="-20%" width="140%" height="170%"><feDropShadow dx="0" dy="3" stdDeviation="3" flood-color="#1b3a9a" flood-opacity=".15"/></filter><marker id="ah" viewBox="0 0 10 10" refX="8" refY="5" markerWidth="6" markerHeight="6" orient="auto-start-reverse"><path d="M0 1 L9 5 L0 9 z" fill="#8aa9ff"/></marker><marker id="ahp" viewBox="0 0 10 10" refX="8" refY="5" markerWidth="6" markerHeight="6" orient="auto-start-reverse"><path d="M0 1 L9 5 L0 9 z" fill="#2b57d6"/></marker><g id="lock"><path d="M-5 -1 V-6.5 a5 5 0 0 1 10 0 V-1" fill="none" stroke="#1b3a9a" stroke-width="2.4" stroke-linecap="round"/><rect x="-8.5" y="-1.5" width="17" height="13.5" rx="3.2" fill="url(#pg)"/><circle cy="4" r="1.9" fill="#fff"/><rect x="-.9" y="4.5" width="1.8" height="3.6" rx=".9" fill="#fff"/></g><g id="seal"><circle r="19" fill="#fff" stroke="#cbd5e1" stroke-width="1.5" filter="url(#sh)"/><circle r="15" fill="url(#pg)"/><circle r="15" fill="url(#hl)"/><circle r="11" fill="none" stroke="#fff" stroke-opacity=".45" stroke-width="1"/></g></defs>
<style>text{font-family:system-ui,-apple-system,'Segoe UI',Roboto,Helvetica,Arial,sans-serif}.t{font-size:14px;font-weight:600;fill:#334155}.s{font-size:12px;fill:#6b7a90}.n{font-size:12px;fill:#334155}.w{font-size:12px;font-weight:600;fill:#fff}.d{stroke:#8aa9ff;stroke-width:2;stroke-dasharray:6 5;fill:none;stroke-linecap:round;marker-end:url(#ah)}.dd{stroke:#8aa9ff;stroke-width:2;stroke-dasharray:6 5;fill:none;stroke-linecap:round;marker-end:url(#ah);marker-start:url(#ah)}.l{stroke:#2b57d6;stroke-width:2;fill:none;stroke-linecap:round;marker-end:url(#ahp);marker-start:url(#ahp)}.tr{stroke:#cbd5e1;stroke-width:2;stroke-dasharray:7 6;fill:none;stroke-linecap:round}.m{text-anchor:middle}.e{text-anchor:end}</style>
<rect width="640" height="320" fill="url(#bg)"/><rect width="640" height="320" fill="url(#dots)"/>
<rect x="40" y="48" width="260" height="176" rx="12" fill="url(#wg)" stroke="#cbd5e1" stroke-width="2" filter="url(#sh)"/><rect x="40" y="48" width="260" height="176" rx="12" fill="url(#hl)"/><text x="170" y="76" class="t m">Ledger batch #42</text><path d="M56 88 H284" stroke="#e8edf7" stroke-width="1.5"/><rect x="58.0" y="98.0" width="11" height="11" rx="2.5" fill="#8aa9ff" fill-opacity=".65"/><rect x="73.5" y="98.0" width="11" height="11" rx="2.5" fill="#8aa9ff" fill-opacity=".38"/><rect x="89.0" y="98.0" width="11" height="11" rx="2.5" fill="#8aa9ff" fill-opacity=".5"/><rect x="104.5" y="98.0" width="11" height="11" rx="2.5" fill="#8aa9ff" fill-opacity=".8"/><rect x="120.0" y="98.0" width="11" height="11" rx="2.5" fill="#8aa9ff" fill-opacity=".32"/><rect x="135.5" y="98.0" width="11" height="11" rx="2.5" fill="#8aa9ff" fill-opacity=".55"/><rect x="151.0" y="98.0" width="11" height="11" rx="2.5" fill="#8aa9ff" fill-opacity=".65"/><rect x="166.5" y="98.0" width="11" height="11" rx="2.5" fill="#8aa9ff" fill-opacity=".38"/><rect x="182.0" y="98.0" width="11" height="11" rx="2.5" fill="#8aa9ff" fill-opacity=".5"/><rect x="197.5" y="98.0" width="11" height="11" rx="2.5" fill="#8aa9ff" fill-opacity=".8"/><rect x="213.0" y="98.0" width="11" height="11" rx="2.5" fill="#8aa9ff" fill-opacity=".32"/><rect x="228.5" y="98.0" width="11" height="11" rx="2.5" fill="#8aa9ff" fill-opacity=".55"/><rect x="244.0" y="98.0" width="11" height="11" rx="2.5" fill="#8aa9ff" fill-opacity=".65"/><rect x="259.5" y="98.0" width="11" height="11" rx="2.5" fill="#8aa9ff" fill-opacity=".38"/><rect x="275.0" y="98.0" width="11" height="11" rx="2.5" fill="#8aa9ff" fill-opacity=".5"/><rect x="58.0" y="113.5" width="11" height="11" rx="2.5" fill="#8aa9ff" fill-opacity=".8"/><rect x="73.5" y="113.5" width="11" height="11" rx="2.5" fill="#8aa9ff" fill-opacity=".32"/><rect x="89.0" y="113.5" width="11" height="11" rx="2.5" fill="#8aa9ff" fill-opacity=".55"/><rect x="104.5" y="113.5" width="11" height="11" rx="2.5" fill="#8aa9ff" fill-opacity=".65"/><rect x="120.0" y="113.5" width="11" height="11" rx="2.5" fill="#8aa9ff" fill-opacity=".38"/><rect x="135.5" y="113.5" width="11" height="11" rx="2.5" fill="#8aa9ff" fill-opacity=".5"/><rect x="151.0" y="113.5" width="11" height="11" rx="2.5" fill="#8aa9ff" fill-opacity=".8"/><rect x="166.5" y="113.5" width="11" height="11" rx="2.5" fill="#8aa9ff" fill-opacity=".32"/><rect x="182.0" y="113.5" width="11" height="11" rx="2.5" fill="#8aa9ff" fill-opacity=".55"/><rect x="197.5" y="113.5" width="11" height="11" rx="2.5" fill="#8aa9ff" fill-opacity=".65"/><rect x="213.0" y="113.5" width="11" height="11" rx="2.5" fill="#8aa9ff" fill-opacity=".38"/><rect x="228.5" y="113.5" width="11" height="11" rx="2.5" fill="#8aa9ff" fill-opacity=".5"/><rect x="244.0" y="113.5" width="11" height="11" rx="2.5" fill="#8aa9ff" fill-opacity=".8"/><rect x="259.5" y="113.5" width="11" height="11" rx="2.5" fill="#8aa9ff" fill-opacity=".32"/><rect x="275.0" y="113.5" width="11" height="11" rx="2.5" fill="#8aa9ff" fill-opacity=".55"/><rect x="58.0" y="129.0" width="11" height="11" rx="2.5" fill="#8aa9ff" fill-opacity=".65"/><rect x="73.5" y="129.0" width="11" height="11" rx="2.5" fill="#8aa9ff" fill-opacity=".38"/><rect x="89.0" y="129.0" width="11" height="11" rx="2.5" fill="#8aa9ff" fill-opacity=".5"/><rect x="104.5" y="129.0" width="11" height="11" rx="2.5" fill="#8aa9ff" fill-opacity=".8"/><rect x="120.0" y="129.0" width="11" height="11" rx="2.5" fill="#8aa9ff" fill-opacity=".32"/><rect x="135.5" y="129.0" width="11" height="11" rx="2.5" fill="#8aa9ff" fill-opacity=".55"/><rect x="151.0" y="129.0" width="11" height="11" rx="2.5" fill="#8aa9ff" fill-opacity=".65"/><rect x="166.5" y="129.0" width="11" height="11" rx="2.5" fill="#8aa9ff" fill-opacity=".38"/><rect x="182.0" y="129.0" width="11" height="11" rx="2.5" fill="#8aa9ff" fill-opacity=".5"/><rect x="197.5" y="129.0" width="11" height="11" rx="2.5" fill="#8aa9ff" fill-opacity=".8"/><rect x="213.0" y="129.0" width="11" height="11" rx="2.5" fill="#8aa9ff" fill-opacity=".32"/><rect x="228.5" y="129.0" width="11" height="11" rx="2.5" fill="#8aa9ff" fill-opacity=".55"/><rect x="244.0" y="129.0" width="11" height="11" rx="2.5" fill="#8aa9ff" fill-opacity=".65"/><rect x="259.5" y="129.0" width="11" height="11" rx="2.5" fill="#8aa9ff" fill-opacity=".38"/><rect x="275.0" y="129.0" width="11" height="11" rx="2.5" fill="#8aa9ff" fill-opacity=".5"/><use href="#seal" x="110" y="176"/><text x="110" y="179.5" class="m" style="font-size:10px;font-weight:700;fill:#fff">Ed</text><text x="110" y="210" class="m" style="font-size:12px;font-weight:600;fill:#1b3a9a">Ed25519</text><use href="#seal" x="230" y="176"/><text x="230" y="179.5" class="m" style="font-size:10px;font-weight:700;fill:#fff">ML</text><text x="230" y="210" class="m" style="font-size:12px;font-weight:600;fill:#1b3a9a">ML-DSA-65</text><text x="170" y="246" class="s m">both signatures must verify</text><rect x="340" y="48" width="260" height="176" rx="12" fill="url(#wg)" stroke="#cbd5e1" stroke-width="2" filter="url(#sh)"/><rect x="340" y="48" width="260" height="176" rx="12" fill="url(#hl)"/><text x="470" y="76" class="t m">Share token</text><path d="M356 88 H584" stroke="#e8edf7" stroke-width="1.5"/><rect x="364" y="104" width="212" height="38" rx="19" fill="#eef2ff" stroke="#8aa9ff" stroke-width="1.5"/><use href="#lock" x="388" y="118"/><text x="482" y="127.5" class="n m">folder key, sealed</text><use href="#seal" x="410" y="176"/><text x="410" y="179.5" class="m" style="font-size:10px;font-weight:700;fill:#fff">X</text><text x="410" y="210" class="m" style="font-size:12px;font-weight:600;fill:#1b3a9a">X25519</text><use href="#seal" x="530" y="176"/><text x="530" y="179.5" class="m" style="font-size:10px;font-weight:700;fill:#fff">ML</text><text x="530" y="210" class="m" style="font-size:12px;font-weight:600;fill:#1b3a9a">ML-KEM-768</text><text x="470" y="246" class="s m">opens only on the requesting device</text><text x="320" y="294" class="s m">Classical and post-quantum together: breaking one is not enough.</text>
</svg>
