<svg xmlns="http://www.w3.org/2000/svg" viewBox="0 0 640 320" width="640" height="320" role="img" aria-label="Selective sync with placeholders">
<defs><linearGradient id="bg" x1="0" y1="0" x2="1" y2="1"><stop offset="0" stop-color="#f8faff"/><stop offset="1" stop-color="#edf1fd"/></linearGradient><pattern id="dots" width="18" height="18" patternUnits="userSpaceOnUse"><circle cx="9" cy="9" r="1" fill="#2b57d6" fill-opacity=".07"/></pattern><linearGradient id="pg" x1="0" y1="0" x2="1" y2="1"><stop offset="0" stop-color="#4472f4"/><stop offset="1" stop-color="#1b3a9a"/></linearGradient><linearGradient id="wg" x1="0" y1="0" x2="0" y2="1"><stop offset="0" stop-color="#ffffff"/><stop offset="1" stop-color="#f0f3fc"/></linearGradient><linearGradient id="sg" x1="0" y1="0" x2="1" y2="1"><stop offset="0" stop-color="#ffffff"/><stop offset=".55" stop-color="#eaf0ff"/><stop offset="1" stop-color="#d6e0fb"/></linearGradient><linearGradient id="dg" x1="0" y1="0" x2="0" y2="1"><stop offset="0" stop-color="#4a5970"/><stop offset="1" stop-color="#1f2a3d"/></linearGradient><linearGradient id="mg" x1="0" y1="0" x2="0" y2="1"><stop offset="0" stop-color="#e6ebf3"/><stop offset="1" stop-color="#b9c4d6"/></linearGradient><radialGradient id="hl" cx=".28" cy=".12" r=".85"><stop offset="0" stop-color="#fff" stop-opacity=".75"/><stop offset=".6" stop-color="#fff" stop-opacity="0"/></radialGradient><radialGradient id="cg" gradientUnits="userSpaceOnUse" cx="-14" cy="-26" r="72"><stop offset="0" stop-color="#ffffff"/><stop offset="1" stop-color="#e6ecfc"/></radialGradient><filter id="sh" x="-20%" y="-20%" width="140%" height="170%"><feDropShadow dx="0" dy="3" stdDeviation="3" flood-color="#1b3a9a" flood-opacity=".15"/></filter><marker id="ah" viewBox="0 0 10 10" refX="8" refY="5" markerWidth="6" markerHeight="6" orient="auto-start-reverse"><path d="M0 1 L9 5 L0 9 z" fill="#8aa9ff"/></marker><marker id="ahp" viewBox="0 0 10 10" refX="8" refY="5" markerWidth="6" markerHeight="6" orient="auto-start-reverse"><path d="M0 1 L9 5 L0 9 z" fill="#2b57d6"/></marker><g id="ok"><circle r="11.5" fill="#fff"/><circle r="9.5" fill="#2bb673"/><path d="M-4.5 .2 L-1.2 3.4 L5 -3.6" stroke="#fff" stroke-width="2.4" fill="none" stroke-linecap="round" stroke-linejoin="round"/></g><g id="phone" filter="url(#sh)"><rect x="-22" y="-42" width="44" height="84" rx="9" fill="url(#dg)"/><rect x="-19" y="-38" width="38" height="76" rx="6" fill="url(#sg)"/><rect x="-19" y="-38" width="38" height="76" rx="6" fill="url(#hl)"/><rect x="-7" y="-42" width="14" height="8" rx="3" fill="url(#dg)"/><rect x="-8" y="34.5" width="16" height="2" rx="1" fill="#94a3b8"/></g><g id="fi"><path d="M-6 -9 h8 l4 4 v14 h-12 z" fill="#fff" stroke="#8aa9ff" stroke-width="1.5" stroke-linejoin="round"/><path d="M2 -9 v4 h4" fill="none" stroke="#8aa9ff" stroke-width="1.5"/></g><g id="fo"><path d="M-9 -7 h6 l2 2 h9 a1.5 1.5 0 0 1 1.5 1.5 v9 a1.5 1.5 0 0 1 -1.5 1.5 h-17 a1.5 1.5 0 0 1 -1.5 -1.5 v-11 a1.5 1.5 0 0 1 1.5 -1.5z" fill="#dbe4ff" stroke="#8aa9ff" stroke-width="1.5" stroke-linejoin="round"/></g><g id="pc" transform="translate(0 1.6) scale(.19)"><g stroke="#8aa9ff" stroke-width="8" fill="none"><rect x="-46" y="-8" width="92" height="30" rx="15"/><circle cx="-22" cy="-6" r="20"/><circle cx="6" cy="-14" r="24"/><circle cx="30" cy="-2" r="18"/></g><g fill="#fff"><rect x="-46" y="-8" width="92" height="30" rx="15"/><circle cx="-22" cy="-6" r="20"/><circle cx="6" cy="-14" r="24"/><circle cx="30" cy="-2" r="18"/></g></g></defs>
<style>text{font-family:system-ui,-apple-system,'Segoe UI',Roboto,Helvetica,Arial,sans-serif}.t{font-size:14px;font-weight:600;fill:#334155}.s{font-size:12px;fill:#6b7a90}.n{font-size:12px;fill:#334155}.w{font-size:12px;font-weight:600;fill:#fff}.d{stroke:#8aa9ff;stroke-width:2;stroke-dasharray:6 5;fill:none;stroke-linecap:round;marker-end:url(#ah)}.dd{stroke:#8aa9ff;stroke-width:2;stroke-dasharray:6 5;fill:none;stroke-linecap:round;marker-end:url(#ah);marker-start:url(#ah)}.l{stroke:#2b57d6;stroke-width:2;fill:none;stroke-linecap:round;marker-end:url(#ahp);marker-start:url(#ahp)}.tr{stroke:#cbd5e1;stroke-width:2;stroke-dasharray:7 6;fill:none;stroke-linecap:round}.m{text-anchor:middle}.e{text-anchor:end}</style>
<rect width="640" height="320" fill="url(#bg)"/><rect width="640" height="320" fill="url(#dots)"/>
<use href="#phone" x="110" y="140"/><rect x="93" y="114" width="34" height="9" rx="2" fill="#8aa9ff" fill-opacity=".3"/><rect x="93" y="128" width="34" height="9" rx="2" fill="#8aa9ff" fill-opacity=".75"/><rect x="93" y="142" width="34" height="9" rx="2" fill="#8aa9ff" fill-opacity=".3"/><rect x="93" y="156" width="34" height="9" rx="2" fill="#8aa9ff" fill-opacity=".75"/><text x="110" y="206" class="t m">Phone</text><rect x="250" y="52" width="330" height="184" rx="12" fill="url(#wg)" stroke="#cbd5e1" stroke-width="2" filter="url(#sh)"/><rect x="250" y="52" width="330" height="184" rx="12" fill="url(#hl)"/><path d="M262 100 H568 M262 144 H568 M262 188 H568" stroke="#e8edf7" stroke-width="1.5"/><use href="#fi" x="274" y="78"/><text x="292" y="83" class="t">holiday-2025.mp4</text><text x="540" y="82.5" class="s e">placeholder · 2.1 GB</text><use href="#pc" x="558" y="78"/><use href="#fi" x="274" y="122"/><text x="292" y="127" class="t">contract.pdf</text><text x="540" y="126.5" class="s e">downloaded</text><use href="#ok" transform="translate(558 122) scale(.85)"/><use href="#fo" x="274" y="166"/><text x="292" y="171" class="t">raw-photos/</text><text x="540" y="170.5" class="s e">placeholder · 48 GB</text><use href="#pc" x="558" y="166"/><use href="#fi" x="274" y="210"/><text x="292" y="215" class="t">notes.md</text><text x="540" y="214.5" class="s e">downloaded</text><use href="#ok" transform="translate(558 210) scale(.85)"/><path class="d" d="M138 118 C 176 100, 206 92, 244 86"/><text x="320" y="294" class="s m">See everything, download what you open, free space in one tap.</text>
</svg>
