<svg xmlns="http://www.w3.org/2000/svg" viewBox="0 0 640 320" width="640" height="320" role="img" aria-label="Transferrer: removable media carries what the other device lacks">
<defs><linearGradient id="bg" x1="0" y1="0" x2="1" y2="1"><stop offset="0" stop-color="#f8faff"/><stop offset="1" stop-color="#edf1fd"/></linearGradient><pattern id="dots" width="18" height="18" patternUnits="userSpaceOnUse"><circle cx="9" cy="9" r="1" fill="#2b57d6" fill-opacity=".07"/></pattern><linearGradient id="pg" x1="0" y1="0" x2="1" y2="1"><stop offset="0" stop-color="#4472f4"/><stop offset="1" stop-color="#1b3a9a"/></linearGradient><linearGradient id="wg" x1="0" y1="0" x2="0" y2="1"><stop offset="0" stop-color="#ffffff"/><stop offset="1" stop-color="#f0f3fc"/></linearGradient><linearGradient id="sg" x1="0" y1="0" x2="1" y2="1"><stop offset="0" stop-color="#ffffff"/><stop offset=".55" stop-color="#eaf0ff"/><stop offset="1" stop-color="#d6e0fb"/></linearGradient><linearGradient id="dg" x1="0" y1="0" x2="0" y2="1"><stop offset="0" stop-color="#4a5970"/><stop offset="1" stop-color="#1f2a3d"/></linearGradient><linearGradient id="mg" x1="0" y1="0" x2="0" y2="1"><stop offset="0" stop-color="#e6ebf3"/><stop offset="1" stop-color="#b9c4d6"/></linearGradient><radialGradient id="hl" cx=".28" cy=".12" r=".85"><stop offset="0" stop-color="#fff" stop-opacity=".75"/><stop offset=".6" stop-color="#fff" stop-opacity="0"/></radialGradient><radialGradient id="cg" gradientUnits="userSpaceOnUse" cx="-14" cy="-26" r="72"><stop offset="0" stop-color="#ffffff"/><stop offset="1" stop-color="#e6ecfc"/></radialGradient><filter id="sh" x="-20%" y="-20%" width="140%" height="170%"><feDropShadow dx="0" dy="3" stdDeviation="3" flood-color="#1b3a9a" flood-opacity=".15"/></filter><marker id="ah" viewBox="0 0 10 10" refX="8" refY="5" markerWidth="6" markerHeight="6" orient="auto-start-reverse"><path d="M0 1 L9 5 L0 9 z" fill="#8aa9ff"/></marker><marker id="ahp" viewBox="0 0 10 10" refX="8" refY="5" markerWidth="6" markerHeight="6" orient="auto-start-reverse"><path d="M0 1 L9 5 L0 9 z" fill="#2b57d6"/></marker><g id="lock"><path d="M-5 -1 V-6.5 a5 5 0 0 1 10 0 V-1" fill="none" stroke="#1b3a9a" stroke-width="2.4" stroke-linecap="round"/><rect x="-8.5" y="-1.5" width="17" height="13.5" rx="3.2" fill="url(#pg)"/><circle cy="4" r="1.9" fill="#fff"/><rect x="-.9" y="4.5" width="1.8" height="3.6" rx=".9" fill="#fff"/></g><g id="lockb"><circle r="14" fill="#fff" stroke="#cbd5e1" stroke-width="1.5" filter="url(#sh)"/><use href="#lock" y="-3"/></g><g id="laptop" filter="url(#sh)"><rect x="-50" y="-36" width="100" height="66" rx="6" fill="url(#dg)"/><rect x="-45" y="-31" width="90" height="54" rx="3" fill="url(#sg)"/><rect x="-45" y="-31" width="90" height="54" rx="3" fill="url(#hl)"/><rect x="-62" y="30" width="124" height="8" rx="3" fill="url(#mg)"/><rect x="-12" y="30" width="24" height="3" rx="1.5" fill="#f6f8fc"/></g><g id="monitor" filter="url(#sh)"><rect x="-50" y="-38" width="100" height="66" rx="6" fill="url(#dg)"/><rect x="-45" y="-33" width="90" height="56" rx="3" fill="url(#sg)"/><rect x="-45" y="-33" width="90" height="56" rx="3" fill="url(#hl)"/><path d="M-8 28 h16 v9 h-16z" fill="#8c9bb3"/><rect x="-28" y="37" width="56" height="5" rx="2.5" fill="url(#mg)"/></g><g id="usb" filter="url(#sh)"><rect x="-34" y="-12" width="52" height="24" rx="6" fill="url(#pg)"/><rect x="-34" y="-12" width="52" height="24" rx="6" fill="url(#hl)"/><rect x="18" y="-8" width="18" height="16" rx="2" fill="url(#mg)" stroke="#94a3b8" stroke-width="1.5"/><rect x="22" y="-4" width="4" height="3" fill="#64748b"/><rect x="22" y="1" width="4" height="3" fill="#64748b"/><circle cx="-24" r="2.5" fill="#fff" fill-opacity=".8"/></g></defs>
<style>text{font-family:system-ui,-apple-system,'Segoe UI',Roboto,Helvetica,Arial,sans-serif}.t{font-size:14px;font-weight:600;fill:#334155}.s{font-size:12px;fill:#6b7a90}.n{font-size:12px;fill:#334155}.w{font-size:12px;font-weight:600;fill:#fff}.d{stroke:#8aa9ff;stroke-width:2;stroke-dasharray:6 5;fill:none;stroke-linecap:round;marker-end:url(#ah)}.dd{stroke:#8aa9ff;stroke-width:2;stroke-dasharray:6 5;fill:none;stroke-linecap:round;marker-end:url(#ah);marker-start:url(#ah)}.l{stroke:#2b57d6;stroke-width:2;fill:none;stroke-linecap:round;marker-end:url(#ahp);marker-start:url(#ahp)}.tr{stroke:#cbd5e1;stroke-width:2;stroke-dasharray:7 6;fill:none;stroke-linecap:round}.m{text-anchor:middle}.e{text-anchor:end}</style>
<rect width="640" height="320" fill="url(#bg)"/><rect width="640" height="320" fill="url(#dots)"/>
<use href="#laptop" x="110" y="112"/><rect x="78" y="90" width="9" height="9" rx="2.5" fill="#8aa9ff" fill-opacity=".65"/><rect x="92" y="90" width="9" height="9" rx="2.5" fill="#8aa9ff" fill-opacity=".38"/><rect x="106" y="90" width="9" height="9" rx="2.5" fill="#8aa9ff" fill-opacity=".5"/><rect x="120" y="90" width="9" height="9" rx="2.5" fill="#8aa9ff" fill-opacity=".8"/><rect x="134" y="90" width="9" height="9" rx="2.5" fill="#8aa9ff" fill-opacity=".32"/><rect x="78" y="104" width="9" height="9" rx="2.5" fill="#8aa9ff" fill-opacity=".55"/><rect x="92" y="104" width="9" height="9" rx="2.5" fill="#8aa9ff" fill-opacity=".65"/><rect x="106" y="104" width="9" height="9" rx="2.5" fill="#8aa9ff" fill-opacity=".38"/><rect x="120" y="104" width="9" height="9" rx="2.5" fill="#8aa9ff" fill-opacity=".5"/><rect x="134" y="104" width="9" height="9" rx="2.5" fill="#8aa9ff" fill-opacity=".8"/><rect x="78" y="118" width="9" height="9" rx="2.5" fill="#8aa9ff" fill-opacity=".32"/><rect x="92" y="118" width="9" height="9" rx="2.5" fill="#8aa9ff" fill-opacity=".55"/><rect x="106" y="118" width="9" height="9" rx="2.5" fill="#8aa9ff" fill-opacity=".65"/><rect x="120" y="118" width="9" height="9" rx="2.5" fill="#8aa9ff" fill-opacity=".38"/><rect x="134" y="118" width="9" height="9" rx="2.5" fill="#8aa9ff" fill-opacity=".5"/><text x="110" y="170" class="t m">Home PC</text><use href="#monitor" x="530" y="110"/><rect x="498" y="88" width="9" height="9" rx="2.5" fill="#8aa9ff" fill-opacity=".65"/><rect x="512" y="88" width="9" height="9" rx="2.5" fill="#8aa9ff" fill-opacity=".38"/><rect x="526" y="88" width="9" height="9" rx="2.5" fill="#8aa9ff" fill-opacity=".5"/><rect x="540" y="88" width="9" height="9" rx="2.5" fill="#8aa9ff" fill-opacity=".8"/><rect x="554" y="88" width="9" height="9" rx="2.5" fill="#8aa9ff" fill-opacity=".32"/><rect x="498" y="102" width="9" height="9" rx="2.5" fill="#8aa9ff" fill-opacity=".55"/><rect x="512" y="102" width="9" height="9" rx="2.5" fill="#8aa9ff" fill-opacity=".65"/><rect x="526" y="102" width="9" height="9" rx="2.5" fill="#8aa9ff" fill-opacity=".38"/><rect x="540" y="102" width="9" height="9" rx="2.5" fill="#8aa9ff" fill-opacity=".5"/><rect x="554" y="102" width="9" height="9" rx="2.5" fill="#8aa9ff" fill-opacity=".8"/><rect x="498" y="116" width="9" height="9" rx="2.5" fill="#8aa9ff" fill-opacity=".32"/><rect x="512" y="116" width="9" height="9" rx="2.5" fill="#8aa9ff" fill-opacity=".55"/><rect x="526" y="116" width="9" height="9" rx="2.5" fill="#8aa9ff" fill-opacity=".65"/><rect x="540" y="116" width="9" height="9" rx="2.5" fill="#8aa9ff" fill-opacity=".38"/><rect x="554" y="116" width="9" height="9" rx="2.5" fill="#8aa9ff" fill-opacity=".5"/><text x="530" y="170" class="t m">Office PC</text><rect x="299" y="58" width="10" height="10" rx="2.5" fill="#8aa9ff" fill-opacity=".65"/><rect x="315" y="58" width="10" height="10" rx="2.5" fill="#8aa9ff" fill-opacity=".38"/><rect x="331" y="58" width="10" height="10" rx="2.5" fill="#8aa9ff" fill-opacity=".5"/><use href="#usb" transform="translate(320 100) scale(1.3)"/><use href="#lockb" x="356" y="78"/><text x="320" y="146" class="t m">Transferrer</text><text x="320" y="164" class="s m">USB stick or disk marked as carrier</text><path class="d" d="M158 98 C 204 86, 238 84, 272 92"/><path class="d" d="M370 92 C 404 84, 440 86, 478 98"/><text x="320" y="294" class="s m">Carries only the missing encrypted blocks; no cloud needed.</text>
</svg>
